HIERARCHY
ROOT Hips
{
	OFFSET -0.001795 -0.223333 0.028219
	CHANNELS 6 Xposition Yposition Zposition Zrotation Yrotation Xrotation 
	JOINT LeftUpLeg
	{
		OFFSET 0.069520 -0.091406 -0.006815
		CHANNELS 3 Zrotation Yrotation Xrotation
		JOINT LeftLeg
		{
			OFFSET 0.034277 -0.375199 -0.004496
			CHANNELS 3 Zrotation Yrotation Xrotation
			JOINT LeftFoot
			{
				OFFSET -0.013596 -0.397961 -0.043693
				CHANNELS 3 Zrotation Yrotation Xrotation
				JOINT LeftToe
				{
					OFFSET 0.026358 -0.055791 0.119288
					CHANNELS 3 Zrotation Yrotation Xrotation
					End Site
					{
						OFFSET 0.000000 0.000000 0.000000
					}
				}
			}
		}
	}
	JOINT RightUpLeg
	{
		OFFSET -0.067670 -0.090522 -0.004320
		CHANNELS 3 Zrotation Yrotation Xrotation
		JOINT RightLeg
		{
			OFFSET -0.038290 -0.382569 -0.008850
			CHANNELS 3 Zrotation Yrotation Xrotation
			JOINT RightFoot
			{
				OFFSET 0.015774 -0.398415 -0.042312
				CHANNELS 3 Zrotation Yrotation Xrotation
				JOINT RightToe
				{
					OFFSET -0.025372 -0.048144 0.123348
					CHANNELS 3 Zrotation Yrotation Xrotation
					End Site
					{
						OFFSET 0.000000 0.000000 0.000000
					}
				}
			}
		}
	}
	JOINT Spine
	{
		OFFSET -0.002533 0.108963 -0.026696
		CHANNELS 3 Zrotation Yrotation Xrotation
		JOINT Spine1
		{
			OFFSET 0.005487 0.135180 0.001092
			CHANNELS 3 Zrotation Yrotation Xrotation
			JOINT Spine2
			{
				OFFSET 0.001457 0.052922 0.025425
				CHANNELS 3 Zrotation Yrotation Xrotation
				JOINT Neck
				{
					OFFSET -0.002778 0.213870 -0.042857
					CHANNELS 3 Zrotation Yrotation Xrotation
					JOINT Head
					{
						OFFSET 0.005152 0.064970 0.051349
						CHANNELS 3 Zrotation Yrotation Xrotation
						End Site
						{
							OFFSET 0.000000 0.000000 0.000000
						}
					}
				}
				JOINT LeftShoulder
				{
					OFFSET 0.078845 0.121749 -0.034090
					CHANNELS 3 Zrotation Yrotation Xrotation
					JOINT LeftArm
					{
						OFFSET 0.090977 0.030469 -0.008868
						CHANNELS 3 Zrotation Yrotation Xrotation
						JOINT LeftForeArm
						{
							OFFSET 0.259612 -0.012772 -0.027456
							CHANNELS 3 Zrotation Yrotation Xrotation
							JOINT LeftHand
							{
								OFFSET 0.249234 0.008986 -0.001171
								CHANNELS 3 Zrotation Yrotation Xrotation
								End Site
								{
									OFFSET 0.000000 0.000000 0.000000
								}
							}
						}
					}
				}
				JOINT RightShoulder
				{
					OFFSET -0.081759 0.118833 -0.038615
					CHANNELS 3 Zrotation Yrotation Xrotation
					JOINT RightArm
					{
						OFFSET -0.096012 0.032551 -0.009143
						CHANNELS 3 Zrotation Yrotation Xrotation
						JOINT RightForeArm
						{
							OFFSET -0.253742 -0.013329 -0.021401
							CHANNELS 3 Zrotation Yrotation Xrotation
							JOINT RightHand
							{
								OFFSET -0.255298 0.007772 -0.005559
								CHANNELS 3 Zrotation Yrotation Xrotation
								End Site
								{
									OFFSET 0.000000 0.000000 0.000000
								}
							}
						}
					}
				}
			}
		}
	}
}
MOTION
Frames: 10
Frame Time: 0.050000
0.081731 0.952735 0.312053 -1.692649 -22.508395 7.794398 7.439650 0.087674 -7.144284 -3.216938 0.587167 3.571839 17.746438 26.797590 27.802226 0.000000 0.000000 0.000000 -8.095680 1.650404 -17.298279 3.043660 0.099679 7.446433 4.515144 -1.930813 15.884525 0.000000 0.000000 0.000000 10.203964 -2.192800 30.122170 -0.686573 0.083833 -18.408456 -1.505683 -3.909787 22.674041 17.274098 -12.796934 -13.092900 0.000000 0.000000 0.000000 -5.406338 -26.165138 12.224706 -17.936755 -24.015192 -0.322661 47.879157 -70.722094 -28.169169 0.000000 0.000000 0.000000 29.486988 14.973184 0.640047 38.788836 27.439487 4.858950 18.175619 57.852897 9.735919 0.000000 0.000000 0.000000 
0.081825 0.952552 0.311901 -1.530874 -21.956496 7.621412 7.548014 0.085301 -6.955267 -3.563833 0.637597 3.242452 17.373834 26.502949 27.393411 0.000000 0.000000 0.000000 -8.399631 1.605982 -17.171516 3.152228 0.089144 7.662345 4.425982 -1.890760 15.738221 0.000000 0.000000 0.000000 10.680115 -2.367554 30.274004 -1.316090 0.285894 -19.010786 -1.079900 -3.773444 22.899321 17.361381 -12.822510 -13.382853 0.000000 0.000000 0.000000 -5.893104 -26.069024 12.304824 -17.473996 -23.814442 -0.423694 49.866028 -71.058249 -29.973124 0.000000 0.000000 0.000000 29.371210 15.001824 0.904328 39.503576 27.892052 5.010374 20.713545 57.656582 11.167892 0.000000 0.000000 0.000000 
0.081695 0.952358 0.312039 -1.415302 -21.293595 7.468560 7.698259 0.086328 -6.608034 -3.873313 0.670607 2.641300 16.931421 26.139406 26.921821 0.000000 0.000000 0.000000 -8.382308 1.567082 -16.992924 3.186816 0.073011 7.610881 3.796297 -3.041188 15.959148 0.000000 0.000000 0.000000 10.832578 -2.466820 30.163500 -1.619312 0.380207 -18.693152 -0.915287 -3.465921 22.610912 17.728554 -13.089330 -13.020692 0.000000 0.000000 0.000000 -6.437509 -25.933317 12.350150 -17.105264 -23.187744 -0.538716 52.172409 -72.111500 -32.513695 0.000000 0.000000 0.000000 29.749164 15.082768 1.226298 40.426685 28.377634 5.279261 21.735790 57.376743 11.807156 0.000000 0.000000 0.000000 
0.081354 0.952037 0.312305 -1.297153 -20.523874 7.426324 7.886018 0.086323 -6.203615 -4.218652 0.699478 1.717032 16.426841 25.710432 26.403454 0.000000 0.000000 0.000000 -8.405482 1.532664 -16.894255 2.985589 0.084945 7.597765 3.530236 -3.500580 16.159400 0.000000 0.000000 0.000000 11.296656 -2.661581 30.275334 -2.149171 0.557138 -19.287172 -0.514665 -3.251993 22.748009 17.996433 -13.306891 -12.872453 0.000000 0.000000 0.000000 -7.059003 -25.750715 12.419090 -16.985648 -22.304176 -0.690491 55.859553 -74.189712 -36.817008 0.000000 0.000000 0.000000 29.832147 15.027978 1.471357 41.447582 28.645667 5.446599 23.216061 56.801819 12.594320 0.000000 0.000000 0.000000 
0.081150 0.951639 0.312557 -1.092727 -19.853138 7.532286 7.917518 0.069710 -6.083348 -4.485457 0.719539 0.973819 16.008009 25.338651 25.996971 0.000000 0.000000 0.000000 -8.545910 1.506880 -16.884896 2.957832 0.064956 7.291586 3.056095 -4.396214 16.489903 0.000000 0.000000 0.000000 11.574363 -2.799277 30.182754 -2.385890 0.639270 -19.215378 -0.368333 -2.568681 22.525264 18.669440 -13.611882 -13.147182 0.000000 0.000000 0.000000 -6.920927 -25.563842 12.150424 -17.373067 -21.796905 -0.717871 61.578970 -76.120395 -42.953901 0.000000 0.000000 0.000000 30.123309 15.146719 1.996279 42.219047 29.588535 5.807712 22.426006 56.434208 12.311483 0.000000 0.000000 0.000000 
0.081271 0.951274 0.312708 -0.965066 -19.206357 7.624804 7.999166 0.059625 -6.030603 -4.740431 0.741841 0.416642 15.614169 24.985952 25.593358 0.000000 0.000000 0.000000 -8.622990 1.494065 -17.008108 2.720854 0.083854 7.271157 2.902821 -4.772464 16.912626 0.000000 0.000000 0.000000 11.946147 -2.958319 30.139745 -2.663772 0.736472 -19.634834 -0.003272 -1.956306 22.603281 19.192620 -13.983286 -12.928648 0.000000 0.000000 0.000000 -6.430056 -25.553493 11.866118 -17.771320 -21.777080 -0.702263 66.644196 -77.506234 -48.387785 0.000000 0.000000 0.000000 30.348625 15.193659 2.439587 42.697002 30.354755 6.049356 22.047691 55.735681 12.145350 0.000000 0.000000 0.000000 
0.081877 0.950932 0.312962 -0.659051 -18.702269 7.847719 7.718432 0.014259 -6.269361 -4.775343 0.732750 0.043909 15.337698 24.730008 25.335334 0.000000 0.000000 0.000000 -8.986363 1.483084 -17.250824 2.710425 0.077330 7.243335 2.566836 -5.270768 16.942089 0.000000 0.000000 0.000000 12.226768 -3.073340 29.846748 -2.841821 0.800502 -19.786397 0.300397 -1.184810 22.529746 19.778036 -14.244336 -13.248290 0.000000 0.000000 0.000000 -6.171325 -25.908369 11.814039 -17.792860 -22.457950 -0.611209 68.946850 -78.215548 -51.170611 0.000000 0.000000 0.000000 30.448843 15.436692 3.071304 43.163871 31.558168 6.444578 19.747549 54.459501 10.873743 0.000000 0.000000 0.000000 
0.082917 0.950632 0.313454 -0.367510 -18.010505 7.940862 7.531190 -0.023665 -6.479824 -4.966894 0.750290 -0.159827 14.938681 24.363108 24.931003 0.000000 0.000000 0.000000 -9.353722 1.454500 -17.414483 2.594460 0.088258 7.366017 2.314537 -5.680322 17.157071 0.000000 0.000000 0.000000 12.630517 -3.215509 29.281983 -2.806661 0.807392 -19.767306 0.703769 -0.546941 22.358716 20.212584 -14.337101 -13.778572 0.000000 0.000000 0.000000 -5.538709 -26.417302 11.708661 -17.581784 -23.703985 -0.456721 64.633129 -78.549586 -47.816829 0.000000 0.000000 0.000000 30.323340 15.496424 3.567825 43.348606 32.750485 6.790127 17.633774 52.826720 9.644144 0.000000 0.000000 0.000000 
0.084111 0.950541 0.314199 -0.137194 -17.458145 7.812020 7.144834 -0.068190 -6.426077 -4.765245 0.709464 -0.281493 14.626855 24.081370 24.603840 0.000000 0.000000 0.000000 -9.796544 1.412453 -17.453383 2.947327 0.048699 7.639962 1.800384 -6.585549 17.486943 0.000000 0.000000 0.000000 13.261346 -3.414103 29.185693 -3.002094 0.877905 -20.002125 1.157089 0.046745 22.308840 20.722987 -14.512141 -14.287807 0.000000 0.000000 0.000000 -4.572492 -26.824657 11.453844 -17.095581 -25.398733 -0.272577 59.887880 -78.340144 -43.709595 0.000000 0.000000 0.000000 29.827531 15.485376 4.001854 43.556670 34.120500 7.192908 15.766929 51.069329 8.549250 0.000000 0.000000 0.000000 
0.085139 0.950353 0.315131 0.073528 -16.942816 7.673815 6.999626 -0.089093 -6.296702 -4.944162 0.727304 -0.457759 14.308711 23.791669 24.253434 0.000000 0.000000 0.000000 -10.210363 1.359882 -17.304408 3.168473 0.010721 7.592394 1.506898 -7.159544 17.931456 0.000000 0.000000 0.000000 13.780576 -3.562348 28.819731 -2.837052 0.847817 -20.204668 1.502643 0.465895 22.023502 21.015610 -14.647632 -14.379685 0.000000 0.000000 0.000000 -3.577735 -27.380188 11.281802 -16.698617 -26.797815 -0.115509 52.932799 -77.953838 -37.645704 0.000000 0.000000 0.000000 29.948959 15.716853 4.461448 43.358107 35.029842 7.432784 14.060923 48.882022 7.472505 0.000000 0.000000 0.000000 
